<svg width="352" height="125" viewBox="0 0 352 125" fill="none" xmlns="http://www.w3.org/2000/svg">
<path d="M288.648 120.5C293.639 120.5 297.721 116.448 297.347 111.471C295.195 82.8143 282.852 55.7539 262.392 35.2936C239.794 12.6955 209.144 2.41281e-06 177.185 0C145.227 -2.41281e-06 114.577 12.6955 91.9789 35.2936C71.5187 55.7539 59.176 82.8143 57.0238 111.471C56.65 116.448 60.7315 120.5 65.7228 120.5C70.7141 120.5 74.7188 116.445 75.1585 111.473C77.2683 87.6173 87.6907 65.1438 104.76 48.0746C123.968 28.8662 150.02 18.075 177.185 18.075C204.35 18.075 230.402 28.8662 249.611 48.0746C266.68 65.1438 277.102 87.6173 279.212 111.473C279.652 116.445 283.657 120.5 288.648 120.5Z" fill="#D9D9D9" fill-opacity="0.1"/>
<path d="M65.7228 120.5C60.7315 120.5 56.65 116.448 57.0238 111.471C58.4493 92.4992 64.3516 74.0886 74.2999 57.7717C84.2481 41.4548 97.9108 27.7758 114.122 17.8193C118.376 15.2072 123.847 16.9794 126.133 21.4164C128.419 25.8533 126.65 31.2702 122.431 33.9384C109.155 42.3361 97.9523 53.6992 89.7327 67.181C81.513 80.6627 76.5428 95.8252 75.1585 111.473C74.7188 116.445 70.7141 120.5 65.7228 120.5Z" fill="#7C98DF"/>
<g filter="url(#filter0_d_259_925)">
<path d="M108.409 120V104.592L109.465 105.408H104.833V102.48H111.793V120H108.409ZM123.26 120.456C121.884 120.456 120.716 120.232 119.756 119.784C118.796 119.32 118.012 118.696 117.404 117.912C116.796 117.112 116.348 116.2 116.06 115.176C115.788 114.136 115.652 113.048 115.652 111.912V110.568C115.652 108.952 115.924 107.496 116.468 106.2C117.012 104.904 117.844 103.88 118.964 103.128C120.084 102.36 121.516 101.976 123.26 101.976C124.988 101.976 126.412 102.36 127.532 103.128C128.652 103.88 129.476 104.904 130.004 106.2C130.548 107.496 130.82 108.952 130.82 110.568V111.912C130.82 113.048 130.676 114.136 130.388 115.176C130.116 116.2 129.676 117.112 129.068 117.912C128.476 118.696 127.7 119.32 126.74 119.784C125.78 120.232 124.62 120.456 123.26 120.456ZM123.26 117.336C124.684 117.336 125.732 116.848 126.404 115.872C127.076 114.88 127.412 113.344 127.412 111.264C127.412 109.056 127.068 107.48 126.38 106.536C125.692 105.576 124.652 105.096 123.26 105.096C121.852 105.096 120.796 105.576 120.092 106.536C119.404 107.48 119.06 109.04 119.06 111.216C119.06 113.312 119.404 114.856 120.092 115.848C120.78 116.84 121.836 117.336 123.26 117.336ZM141.401 120.456C140.025 120.456 138.857 120.232 137.897 119.784C136.937 119.32 136.153 118.696 135.545 117.912C134.937 117.112 134.489 116.2 134.201 115.176C133.929 114.136 133.793 113.048 133.793 111.912V110.568C133.793 108.952 134.065 107.496 134.609 106.2C135.153 104.904 135.985 103.88 137.105 103.128C138.225 102.36 139.657 101.976 141.401 101.976C143.129 101.976 144.553 102.36 145.673 103.128C146.793 103.88 147.617 104.904 148.145 106.2C148.689 107.496 148.961 108.952 148.961 110.568V111.912C148.961 113.048 148.817 114.136 148.529 115.176C148.257 116.2 147.817 117.112 147.209 117.912C146.617 118.696 145.841 119.32 144.881 119.784C143.921 120.232 142.761 120.456 141.401 120.456ZM141.401 117.336C142.825 117.336 143.873 116.848 144.545 115.872C145.217 114.88 145.553 113.344 145.553 111.264C145.553 109.056 145.209 107.48 144.521 106.536C143.833 105.576 142.793 105.096 141.401 105.096C139.993 105.096 138.937 105.576 138.233 106.536C137.545 107.48 137.201 109.04 137.201 111.216C137.201 113.312 137.545 114.856 138.233 115.848C138.921 116.84 139.977 117.336 141.401 117.336ZM157.785 120V102.48H162.441L166.833 112.944H167.265L171.633 102.48H176.361V120H172.977V105.048L173.409 105.096L168.681 116.424H165.201L160.449 105.096L160.905 105.048V120H157.785ZM180.683 120V102.48H184.019V120H180.683ZM183.539 120V117.12H191.483V120H183.539ZM183.539 112.536V109.656H190.859V112.536H183.539ZM183.539 105.36V102.48H191.291V105.36H183.539ZM202.976 120.456C201.472 120.456 200.144 120.208 198.992 119.712C197.856 119.2 196.896 118.52 196.112 117.672C195.344 116.808 194.76 115.84 194.36 114.768C193.976 113.68 193.784 112.552 193.784 111.384V110.856C193.784 109.752 193.976 108.672 194.36 107.616C194.744 106.56 195.304 105.608 196.04 104.76C196.792 103.912 197.712 103.24 198.8 102.744C199.904 102.232 201.168 101.976 202.592 101.976C204.128 101.976 205.488 102.264 206.672 102.84C207.856 103.4 208.808 104.192 209.528 105.216C210.248 106.224 210.672 107.4 210.8 108.744H207.368C207.256 107.992 206.976 107.352 206.528 106.824C206.08 106.28 205.512 105.864 204.824 105.576C204.152 105.288 203.408 105.144 202.592 105.144C201.776 105.144 201.032 105.288 200.36 105.576C199.704 105.864 199.144 106.272 198.68 106.8C198.216 107.328 197.856 107.96 197.6 108.696C197.36 109.432 197.24 110.248 197.24 111.144C197.24 112.12 197.376 112.992 197.648 113.76C197.92 114.528 198.304 115.184 198.8 115.728C199.296 116.256 199.896 116.664 200.6 116.952C201.304 117.224 202.096 117.36 202.976 117.36C204.144 117.36 205.168 117.12 206.048 116.64C206.928 116.144 207.568 115.504 207.968 114.72L207.368 117.48V112.968H210.512V116.856C209.76 117.992 208.736 118.88 207.44 119.52C206.144 120.144 204.656 120.456 202.976 120.456ZM202.424 113.64V111.096H211.976V113.64H202.424ZM212.846 120L218.822 102.48H224.39L230.534 120H227.03L221.822 104.808L223.046 105.336H220.046L221.294 104.808L216.254 120H212.846ZM217.022 115.344L218.102 112.464H225.206L226.262 115.344H217.022ZM238.995 120.456C237.443 120.456 236.131 120.208 235.059 119.712C234.003 119.216 233.195 118.536 232.635 117.672C232.075 116.792 231.795 115.8 231.795 114.696H235.131C235.131 115.16 235.259 115.616 235.515 116.064C235.771 116.496 236.179 116.848 236.739 117.12C237.315 117.392 238.067 117.528 238.995 117.528C239.827 117.528 240.523 117.408 241.083 117.168C241.643 116.928 242.059 116.616 242.331 116.232C242.603 115.832 242.739 115.384 242.739 114.888C242.739 114.264 242.475 113.768 241.947 113.4C241.419 113.016 240.603 112.776 239.499 112.68L237.963 112.56C236.283 112.416 234.939 111.896 233.931 111C232.939 110.088 232.443 108.888 232.443 107.4C232.443 106.28 232.707 105.32 233.235 104.52C233.763 103.704 234.499 103.08 235.443 102.648C236.403 102.2 237.523 101.976 238.803 101.976C240.131 101.976 241.275 102.208 242.235 102.672C243.195 103.136 243.939 103.792 244.467 104.64C244.995 105.472 245.259 106.456 245.259 107.592H241.923C241.923 107.112 241.803 106.672 241.563 106.272C241.339 105.856 240.995 105.528 240.531 105.288C240.083 105.032 239.507 104.904 238.803 104.904C238.131 104.904 237.571 105.016 237.123 105.24C236.675 105.464 236.339 105.768 236.115 106.152C235.891 106.536 235.779 106.952 235.779 107.4C235.779 107.944 235.979 108.424 236.379 108.84C236.779 109.24 237.411 109.472 238.275 109.536L239.811 109.68C241.059 109.776 242.155 110.04 243.099 110.472C244.043 110.904 244.771 111.488 245.283 112.224C245.811 112.96 246.075 113.848 246.075 114.888C246.075 115.992 245.787 116.968 245.211 117.816C244.635 118.648 243.811 119.296 242.739 119.76C241.683 120.224 240.435 120.456 238.995 120.456Z" fill="white"/>
</g>
<defs>
<filter id="filter0_d_259_925" x="100.833" y="97.976" width="149.243" height="26.4801" filterUnits="userSpaceOnUse" color-interpolation-filters="sRGB">
<feFlood flood-opacity="0" result="BackgroundImageFix"/>
<feColorMatrix in="SourceAlpha" type="matrix" values="0 0 0 0 0 0 0 0 0 0 0 0 0 0 0 0 0 0 127 0" result="hardAlpha"/>
<feOffset/>
<feGaussianBlur stdDeviation="2"/>
<feComposite in2="hardAlpha" operator="out"/>
<feColorMatrix type="matrix" values="0 0 0 0 1 0 0 0 0 1 0 0 0 0 1 0 0 0 1 0"/>
<feBlend mode="normal" in2="BackgroundImageFix" result="effect1_dropShadow_259_925"/>
<feBlend mode="normal" in="SourceGraphic" in2="effect1_dropShadow_259_925" result="shape"/>
</filter>
</defs>
</svg>
