<svg width="61" height="62" viewBox="0 0 61 62" fill="none" xmlns="http://www.w3.org/2000/svg">
<g filter="url(#filter0_d_259_886)">
<path d="M49.541 31C50.3468 31 51.0054 30.3459 50.9481 29.5422C50.6957 26.0009 49.5268 22.5766 47.5451 19.6108C45.2926 16.2396 42.0909 13.6121 38.345 12.0605C34.5991 10.5089 30.4773 10.1029 26.5006 10.8939C22.524 11.6849 18.8713 13.6373 16.0043 16.5043C13.1373 19.3713 11.1849 23.024 10.3939 27.0006C9.6029 30.9773 10.0089 35.0991 11.5605 38.845C13.1121 42.5909 15.7396 45.7926 19.1108 48.0451C22.0766 50.0268 25.5009 51.1957 29.0422 51.4481C29.8459 51.5054 30.5 50.8468 30.5 50.041C30.5 49.2353 29.8456 48.5884 29.0426 48.5216C26.0791 48.2751 23.2178 47.2799 20.7319 45.6189C17.8406 43.687 15.587 40.9411 14.2563 37.7284C12.9255 34.5157 12.5774 30.9805 13.2558 27.5699C13.9342 24.1593 15.6087 21.0265 18.0676 18.5676C20.5265 16.1087 23.6593 14.4342 27.0699 13.7558C30.4805 13.0774 34.0157 13.4255 37.2284 14.7563C40.4411 16.087 43.187 18.3406 45.1189 21.2319C46.7799 23.7178 47.7751 26.5791 48.0216 29.5426C48.0884 30.3456 48.7353 31 49.541 31Z" fill="#0038C9"/>
</g>
<path d="M51 31C51 42.3218 41.8218 51.5 30.5 51.5C19.1782 51.5 10 42.3218 10 31C10 19.6782 19.1782 10.5 30.5 10.5C41.8218 10.5 51 19.6782 51 31ZM12.9179 31C12.9179 40.7103 20.7897 48.5821 30.5 48.5821C40.2103 48.5821 48.0821 40.7103 48.0821 31C48.0821 21.2897 40.2103 13.4179 30.5 13.4179C20.7897 13.4179 12.9179 21.2897 12.9179 31Z" fill="#0038C9"/>
<path d="M19.8047 33.5V28.6758H19.7695L18.0977 29.6562V28.8789L19.8008 27.8633H20.6172V33.5H19.8047ZM25.0977 33.6172C24.5039 33.6172 23.9896 33.4961 23.5547 33.2539C23.1198 33.0117 22.7839 32.6706 22.5469 32.2305C22.3099 31.7904 22.1914 31.2747 22.1914 30.6836V30.6758C22.1914 30.0846 22.3099 29.5703 22.5469 29.1328C22.7839 28.6927 23.1198 28.3516 23.5547 28.1094C23.9896 27.8646 24.5039 27.7422 25.0977 27.7422C25.6784 27.7422 26.1823 27.8646 26.6094 28.1094C27.0391 28.3516 27.3711 28.6927 27.6055 29.1328C27.8398 29.5729 27.957 30.0872 27.957 30.6758V30.6836C27.957 31.2721 27.8398 31.7865 27.6055 32.2266C27.3711 32.6667 27.0391 33.0091 26.6094 33.2539C26.1823 33.4961 25.6784 33.6172 25.0977 33.6172ZM25.0977 32.9297C25.5117 32.9297 25.8698 32.8359 26.1719 32.6484C26.4766 32.4609 26.7109 32.1992 26.875 31.8633C27.0417 31.5273 27.125 31.1328 27.125 30.6797V30.6719C27.125 30.2214 27.0417 29.8281 26.875 29.4922C26.7109 29.1562 26.4766 28.8958 26.1719 28.7109C25.8698 28.526 25.5117 28.4336 25.0977 28.4336C24.6706 28.4336 24.3021 28.526 23.9922 28.7109C23.6823 28.8958 23.444 29.1562 23.2773 29.4922C23.1107 29.8255 23.0273 30.2188 23.0273 30.6719V30.6797C23.0273 31.1354 23.1107 31.5312 23.2773 31.8672C23.444 32.2031 23.6823 32.4648 23.9922 32.6523C24.3021 32.8372 24.6706 32.9297 25.0977 32.9297ZM31.9961 33.6172C31.4023 33.6172 30.888 33.4961 30.4531 33.2539C30.0182 33.0117 29.6823 32.6706 29.4453 32.2305C29.2083 31.7904 29.0898 31.2747 29.0898 30.6836V30.6758C29.0898 30.0846 29.2083 29.5703 29.4453 29.1328C29.6823 28.6927 30.0182 28.3516 30.4531 28.1094C30.888 27.8646 31.4023 27.7422 31.9961 27.7422C32.5768 27.7422 33.0807 27.8646 33.5078 28.1094C33.9375 28.3516 34.2695 28.6927 34.5039 29.1328C34.7383 29.5729 34.8555 30.0872 34.8555 30.6758V30.6836C34.8555 31.2721 34.7383 31.7865 34.5039 32.2266C34.2695 32.6667 33.9375 33.0091 33.5078 33.2539C33.0807 33.4961 32.5768 33.6172 31.9961 33.6172ZM31.9961 32.9297C32.4102 32.9297 32.7682 32.8359 33.0703 32.6484C33.375 32.4609 33.6094 32.1992 33.7734 31.8633C33.9401 31.5273 34.0234 31.1328 34.0234 30.6797V30.6719C34.0234 30.2214 33.9401 29.8281 33.7734 29.4922C33.6094 29.1562 33.375 28.8958 33.0703 28.7109C32.7682 28.526 32.4102 28.4336 31.9961 28.4336C31.569 28.4336 31.2005 28.526 30.8906 28.7109C30.5807 28.8958 30.3424 29.1562 30.1758 29.4922C30.0091 29.8255 29.9258 30.2188 29.9258 30.6719V30.6797C29.9258 31.1354 30.0091 31.5312 30.1758 31.8672C30.3424 32.2031 30.5807 32.4648 30.8906 32.6523C31.2005 32.8372 31.569 32.9297 31.9961 32.9297ZM37.5625 30.7344C37.2422 30.7344 36.9635 30.6745 36.7266 30.5547C36.4922 30.4323 36.3099 30.2617 36.1797 30.043C36.0521 29.8216 35.9883 29.5625 35.9883 29.2656V29.2617C35.9883 28.9648 36.0521 28.707 36.1797 28.4883C36.3099 28.2695 36.4922 28.1003 36.7266 27.9805C36.9635 27.8581 37.2422 27.7969 37.5625 27.7969C37.8776 27.7969 38.151 27.8581 38.3828 27.9805C38.6172 28.1003 38.7982 28.2695 38.9258 28.4883C39.056 28.707 39.1211 28.9648 39.1211 29.2617V29.2656C39.1211 29.5625 39.056 29.8216 38.9258 30.043C38.7982 30.2617 38.6172 30.4323 38.3828 30.5547C38.151 30.6745 37.8776 30.7344 37.5625 30.7344ZM37.5625 30.207C37.8464 30.207 38.0716 30.1224 38.2383 29.9531C38.4076 29.7812 38.4922 29.5521 38.4922 29.2656V29.2617C38.4922 28.9727 38.4076 28.7448 38.2383 28.5781C38.0716 28.4089 37.8464 28.3242 37.5625 28.3242C37.2708 28.3242 37.0404 28.4089 36.8711 28.5781C36.7044 28.7448 36.6211 28.9727 36.6211 29.2617V29.2656C36.6211 29.5547 36.7044 29.7839 36.8711 29.9531C37.0404 30.1224 37.2708 30.207 37.5625 30.207ZM38.0156 33.5H37.2461L41.8594 27.8633H42.6172L38.0156 33.5ZM42.3164 33.5586C41.9961 33.5586 41.7174 33.4987 41.4805 33.3789C41.2461 33.2591 41.0638 33.0898 40.9336 32.8711C40.806 32.6497 40.7422 32.3893 40.7422 32.0898V32.0859C40.7422 31.7891 40.806 31.5312 40.9336 31.3125C41.0638 31.0938 41.2461 30.9245 41.4805 30.8047C41.7174 30.6849 41.9961 30.625 42.3164 30.625C42.6341 30.625 42.9089 30.6849 43.1406 30.8047C43.375 30.9245 43.556 31.0938 43.6836 31.3125C43.8112 31.5312 43.875 31.7891 43.875 32.0859V32.0898C43.875 32.3893 43.8112 32.6484 43.6836 32.8672C43.556 33.0859 43.375 33.2565 43.1406 33.3789C42.9089 33.4987 42.6341 33.5586 42.3164 33.5586ZM42.3164 33.0312C42.6029 33.0312 42.8281 32.9466 42.9922 32.7773C43.1589 32.6081 43.2422 32.3802 43.2422 32.0938V32.0898C43.2422 31.8008 43.1589 31.5716 42.9922 31.4023C42.8281 31.2331 42.6029 31.1484 42.3164 31.1484C42.0273 31.1484 41.7982 31.2331 41.6289 31.4023C41.4596 31.5716 41.375 31.8008 41.375 32.0898V32.0938C41.375 32.3802 41.4596 32.6081 41.6289 32.7773C41.7982 32.9466 42.0273 33.0312 42.3164 33.0312Z" fill="white"/>
<defs>
<filter id="filter0_d_259_886" x="-7.62939e-06" y="0.5" width="60.9516" height="60.9516" filterUnits="userSpaceOnUse" color-interpolation-filters="sRGB">
<feFlood flood-opacity="0" result="BackgroundImageFix"/>
<feColorMatrix in="SourceAlpha" type="matrix" values="0 0 0 0 0 0 0 0 0 0 0 0 0 0 0 0 0 0 127 0" result="hardAlpha"/>
<feOffset/>
<feGaussianBlur stdDeviation="5"/>
<feComposite in2="hardAlpha" operator="out"/>
<feColorMatrix type="matrix" values="0 0 0 0 0 0 0 0 0 0.219608 0 0 0 0 0.788235 0 0 0 0.25 0"/>
<feBlend mode="normal" in2="BackgroundImageFix" result="effect1_dropShadow_259_886"/>
<feBlend mode="normal" in="SourceGraphic" in2="effect1_dropShadow_259_886" result="shape"/>
</filter>
</defs>
</svg>
